<svg xmlns="http://www.w3.org/2000/svg" viewBox="0 0 73 73"><defs><style>.cls-1{fill:#fff;}.cls-1,.cls-2{stroke:#231f20;stroke-miterlimit:10;}.cls-2{fill:none;}</style></defs><title>Helmet</title><g id="Ebene_2" data-name="Ebene 2"><g id="Helmet"><polygon class="cls-1" points="32.9 56.3 40.1 56.3 50.9 49.1 50.9 27.5 22.1 27.5 22.1 49.1 32.9 56.3"/><path class="cls-1" d="M18.5,56.3V31.4A14.7,14.7,0,0,1,33.2,16.7h6.6A14.7,14.7,0,0,1,54.5,31.4V56.3L40.1,63.5v-18l10.8-3.6V34.7L36.5,38.3,22.1,34.7v7.2l10.8,3.6v18Z"/><polygon class="cls-1" points="29.3 13.1 32.9 27.5 40.1 27.5 43.7 13.1 29.3 13.1"/><rect class="cls-2" x="0.5" y="0.5" width="72" height="72"/></g></g></svg>