<svg xmlns="http://www.w3.org/2000/svg" width='4000px' height="4320px" viewBox='-2.5 -7.5 125 135' version='1.1'>

  <defs>
  	<pattern id="pattern" x="0" y="0" width="60" height="30" patternUnits="userSpaceOnUse" patternTransform="scale(0.2 0.2)">
		<g id="Page-1" fill="none" fill-rule="evenodd">
			<g id="brick-wall" fill="#eb8931">
				
				<g transform="translate(-1,-1)">
<g transform="scale(0.8,.8)" stroke-miterlimit='10' stroke-linejoin="round" stroke-width='0.5' fill='white' stroke='black' >
	<polygon class="cls-2" points="18.01 5.67 14.86 5.94 9.11 12.77 12.53 15.64 18.28 8.81 18.01 5.67"/>
	<polygon class="cls-2" points="5.97 13.04 7.41 11.33 14.24 17.08 12.8 18.79 7.68 14.48 5.97 13.04"/>
	<rect class="cls-2" x="5.72" y="16.51" width="4.46" height="2.23" transform="translate(-10.66 12.36) rotate(-49.92)"/>
	<line class="cls-2" x1="10.82" y1="14.21" x2="15.13" y2="9.08"/>
</g>
				</g>
				<g transform="translate(14,14)">
<g transform="scale(0.8,.8)" stroke-miterlimit='10' stroke-linejoin="round" stroke-width='0.5' fill='white' stroke='black' >
	<path class="cls-2" d="M8,18.08h3.34V11.37a1.11,1.11,0,0,1,1.11-1.1h0a1.13,1.13,0,0,1,1.13,1.13v6.68H17V8H8Z"/>
	<rect class="cls-2" x="8.0" y="6.92" width="9" height="1.12"/>
	<rect class="cls-2" x="11.38" y="6.92" width="2.23" height="1.12"/>
</g>

				</g>
				<g transform="translate(29,-1)">
<g transform="scale(0.8,.8)" stroke-miterlimit='10' stroke-linejoin="round" stroke-width='0.5' fill='white' stroke='black' >
	<polygon class="cls-2" points="11.61 17.41 13.39 17.41 16.07 15.63 16.07 10.27 8.93 10.27 8.93 15.63 11.61 17.41"/>
	<path class="cls-2" d="M8,17.41V11.24a3.64,3.64,0,0,1,3.64-3.65h1.64A3.64,3.64,0,0,1,17,11.24v6.17L13.39,19.2V14.73l2.68-.89V12.05L12.5,13l-3.57-.9v1.79l2.68.89V19.2Z"/>
	<polygon class="cls-2" points="10.71 6.7 11.61 10.27 13.39 10.27 14.29 6.7 10.71 6.7"/>
</g>

				</g>
				<g transform="translate(44,14)">
<g transform="scale(0.8,.8)" stroke-miterlimit='10' stroke-linejoin="round" stroke-width='0.5' fill='white' stroke='black' >
	<circle class="cls-2" cx="12.5" cy="12.5" r="6.7"/>
	<line class="cls-2" x1="12.5" y1="5.8" x2="12.5" y2="19.2"/>
	<line class="cls-2" x1="5.8" y1="12.5" x2="19.2" y2="12.5"/>
	<circle class="cls-2" cx="12.5" cy="12.5" r="2.23"/>
</g>

				</g>
			</g>
		</g>
 	</pattern>
</defs>

<rect x="-2.5" y="-7.5" width="125" height="135"  fill="url(#pattern)" />

</svg>
	