
<svg xmlns="http://www.w3.org/2000/svg" width='408px' height="555px" viewBox='-2.5 -7.5 25 35' version='1.1'>
	
	<defs>

  	<pattern id="pattern" x="0" y="0" width="32" height="64" patternUnits="userSpaceOnUse" patternTransform="scale(0.2 0.2)">
		<g id="Page-1" stroke="none" stroke-width="1" fill="none" fill-rule="evenodd">
	        <g id="aztec" fill="#f78ed6">
	            <path d="M0,28 L20,28 L20,16 L16,16 L16,24 L4,24 L4,4 L32,4 L32,32 L28,32 L28,8 L8,8 L8,20 L12,20 L12,12 L24,12 L24,32 L0,32 L0,28 Z M12,36 L32,36 L32,40 L16,40 L16,64 L0,64 L0,60 L12,60 L12,36 Z M28,48 L24,48 L24,60 L32,60 L32,64 L20,64 L20,44 L32,44 L32,56 L28,56 L28,48 Z M0,36 L8,36 L8,56 L0,56 L0,52 L4,52 L4,40 L0,40 L0,36 Z" id="Combined-Shape"></path>
	        </g>
	    </g>
 	</pattern>
 
 </defs>
 
<rect x="-3.5" y="-8.5" width="27" height="37" stroke="none" style="fill: #be2633" />
<rect x="-3.5" y="-8.5" width="27" height="37" stroke="none" stroke-width="5px" fill="url(#pattern)" /> 
<g transform="translate(-2.5,-2.5)" >
<g transform="scale(1.25,1.25)" >
			
<g transform="scale(0.8,.8)" stroke-miterlimit='10' stroke-linejoin="round" stroke-width='0.5' fill='white' stroke='black' >
	<path class="cls-2" d="M8,18.08h3.34V11.37a1.11,1.11,0,0,1,1.11-1.1h0a1.13,1.13,0,0,1,1.13,1.13v6.68H17V8H8Z"/>
	<rect class="cls-2" x="8.0" y="6.92" width="9" height="1.12"/>
	<rect class="cls-2" x="11.38" y="6.92" width="2.23" height="1.12"/>
</g>

</g>
</g>
</svg>
	