
	<svg xmlns="http://www.w3.org/2000/svg" width='408px' height="555px"  viewBox='-2.5 -7.5 25 35' version='1.1' style="background: black;" >

  <defs>
  	<pattern id="pattern" x="0" y="0" width="30" height="30" patternUnits="userSpaceOnUse" patternTransform="scale(0.2 0.2)">
		<g id="Page-1" fill="none" fill-rule="evenodd">
			<g id="brick-wall" fill="#eb8931">
				<g transform="translate(-1,-1)">
						
<g transform="scale(0.8,.8)" stroke-miterlimit='10' stroke-linejoin="round" stroke-width='0.5' fill='black' stroke='white' >
	<circle class="cls-2" cx="12.5" cy="12.5" r="6.7"/>
	<line class="cls-2" x1="12.5" y1="5.8" x2="12.5" y2="19.2"/>
	<line class="cls-2" x1="5.8" y1="12.5" x2="19.2" y2="12.5"/>
	<circle class="cls-2" cx="12.5" cy="12.5" r="2.23"/>
</g>

				</g>
				<g transform="translate(14,14)">
						
<g transform="scale(0.8,.8)" stroke-miterlimit='10' stroke-linejoin="round" stroke-width='0.5' fill='black' stroke='white' >
	<circle class="cls-2" cx="12.5" cy="12.5" r="6.7"/>
	<line class="cls-2" x1="12.5" y1="5.8" x2="12.5" y2="19.2"/>
	<line class="cls-2" x1="5.8" y1="12.5" x2="19.2" y2="12.5"/>
	<circle class="cls-2" cx="12.5" cy="12.5" r="2.23"/>
</g>

				</g>
			</g>
		</g>
 	</pattern>
</defs>

<rect x="-3.5" y="-8.5" width="27" height="37"  fill="url(#pattern)" />
		
<g transform="scale(0.8,.8)" stroke-miterlimit='10' stroke-linejoin="round" stroke-width='0.5' fill='black' stroke='white' >
	<circle class="cls-2" cx="12.5" cy="12.5" r="6.7"/>
	<line class="cls-2" x1="12.5" y1="5.8" x2="12.5" y2="19.2"/>
	<line class="cls-2" x1="5.8" y1="12.5" x2="19.2" y2="12.5"/>
	<circle class="cls-2" cx="12.5" cy="12.5" r="2.23"/>
</g>

</svg>
	