
<svg xmlns="http://www.w3.org/2000/svg" width='408px' height="555px" viewBox='-2.5 -7.5 25 35' version='1.1'>
	
	<defs>

  	<pattern id="pattern" x="0" y="0" width="42" height="44" patternUnits="userSpaceOnUse" patternTransform="scale(0.2 0.2)">
		<g id="Page-1" fill="none" fill-rule="evenodd"><g id="brick-wall" fill="#eb8931"><path d="M0 0h42v44H0V0zm1 1h40v20H1V1zM0 23h20v20H0V23zm22 0h20v20H22V23z"/></g></g>
 	</pattern>
 
 </defs>
 
<rect x="-3.5" y="-8.5" width="27" height="37" stroke="none" style="fill: #a46422" />
<rect x="-3.5" y="-8.5" width="27" height="37" stroke="none" stroke-width="5px" fill="url(#pattern)" /> 
<g transform="translate(-2.5,-2.5)" >
<g transform="scale(1.25,1.25)" >
			
<g transform="scale(0.8,.8)" stroke-miterlimit='10' stroke-linejoin="round" stroke-width='0.5' fill='white' stroke='black' >
	<path class="cls-2" d="M8,18.08h3.34V11.37a1.11,1.11,0,0,1,1.11-1.1h0a1.13,1.13,0,0,1,1.13,1.13v6.68H17V8H8Z"/>
	<rect class="cls-2" x="8.0" y="6.92" width="9" height="1.12"/>
	<rect class="cls-2" x="11.38" y="6.92" width="2.23" height="1.12"/>
</g>

</g>
</g>
</svg>
	