
<svg xmlns="http://www.w3.org/2000/svg" width='408px' height="555px" viewBox='-2.5 -7.5 25 35' version='1.1'>
	
	<defs>

  	<pattern id="pattern" x="0" y="0" width="40" height="40" patternUnits="userSpaceOnUse" patternTransform="scale(0.2 0.2)">
		<g id="Page-1" stroke="none" stroke-width="1" fill="none" fill-rule="evenodd">
	        <g id="diagonal-stripes" fill="#f7e26b">
	            <polygon id="Path-2" points="0 40 40 0 20 0 0 20"></polygon>
	            <polygon id="Path-2-Copy" points="40 40 40 20 20 40"></polygon>
	        </g>
	    </g>
 	</pattern>
 
 </defs>
 
<rect x="-3.5" y="-8.5" width="27" height="37" stroke="none" style="fill: #493c2b" />
<rect x="-3.5" y="-8.5" width="27" height="37" stroke="none" stroke-width="5px" fill="url(#pattern)" /> 
<g transform="translate(-2.5,-2.5)" >
<g transform="scale(1.25,1.25)" >
 		
<g transform="scale(0.8,.8)" stroke-miterlimit='10' stroke-linejoin="round" stroke-width='0.5' fill='white' stroke='black' >
	<polygon class="cls-2" points="18.01 5.67 14.86 5.94 9.11 12.77 12.53 15.64 18.28 8.81 18.01 5.67"/>
	<polygon class="cls-2" points="5.97 13.04 7.41 11.33 14.24 17.08 12.8 18.79 7.68 14.48 5.97 13.04"/>
	<rect class="cls-2" x="5.72" y="16.51" width="4.46" height="2.23" transform="translate(-10.66 12.36) rotate(-49.92)"/>
	<line class="cls-2" x1="10.82" y1="14.21" x2="15.13" y2="9.08"/>
</g>

</g>
</g>
</svg>
	