
<svg xmlns="http://www.w3.org/2000/svg" width='408px' height="555px" viewBox='-2.5 -7.5 25 35' version='1.1'>
	
	<defs>

  	<pattern id="pattern" x="0" y="0" width="40" height="40" patternUnits="userSpaceOnUse" patternTransform="scale(0.2 0.2)">
		<g id="Page-1" stroke="none" stroke-width="1" fill="none" fill-rule="evenodd">
	        <g id="diagonal-stripes" fill="#f7e26b">
	            <polygon id="Path-2" points="0 40 40 0 20 0 0 20"></polygon>
	            <polygon id="Path-2-Copy" points="40 40 40 20 20 40"></polygon>
	        </g>
	    </g>
 	</pattern>
 
 </defs>
 
<rect x="-3.5" y="-8.5" width="27" height="37" stroke="none" style="fill: #493c2b" />
<rect x="-3.5" y="-8.5" width="27" height="37" stroke="none" stroke-width="5px" fill="url(#pattern)" /> 
<g transform="translate(-2.5,-2.5)" >
<g transform="scale(1.25,1.25)" >
			
<g transform="scale(0.8,.8)" stroke-miterlimit='10' stroke-linejoin="round" stroke-width='0.5' fill='white' stroke='black' >
	<path class="cls-2" d="M8,18.08h3.34V11.37a1.11,1.11,0,0,1,1.11-1.1h0a1.13,1.13,0,0,1,1.13,1.13v6.68H17V8H8Z"/>
	<rect class="cls-2" x="8.0" y="6.92" width="9" height="1.12"/>
	<rect class="cls-2" x="11.38" y="6.92" width="2.23" height="1.12"/>
</g>

</g>
</g>
</svg>
	