
<svg xmlns="http://www.w3.org/2000/svg" width='816px' height="1110px" viewBox='-2.5 -7.5 25 35' version='1.1'>
	
	<defs>

  	<pattern id="pattern" x="20" y="20" width="126" height="84" patternUnits="userSpaceOnUse" patternTransform="scale(0.1 0.1)">
		<g fill-rule="evenodd"><g fill="#b2dcef"><path d="M126 83v1H0v-2h40V42H0v-2h40V0h2v40h40V0h2v40h40V0h2v83zm-2-1V42H84v40h40zM82 42H42v40h40V42zm-50-6a4 4 0 1 1 0-8 4 4 0 0 1 0 8zM8 12a4 4 0 1 1 0-8 4 4 0 0 1 0 8zm96 12a4 4 0 1 1 0-8 4 4 0 0 1 0 8zm-42 0a4 4 0 1 1 0-8 4 4 0 0 1 0 8zm30-12a4 4 0 1 1 0-8 4 4 0 0 1 0 8zM20 54a4 4 0 1 1 0-8 4 4 0 0 1 0 8zm12 24a4 4 0 1 1 0-8 4 4 0 0 1 0 8zM8 54a4 4 0 1 1 0-8 4 4 0 0 1 0 8zm24 0a4 4 0 1 1 0-8 4 4 0 0 1 0 8zM8 78a4 4 0 1 1 0-8 4 4 0 0 1 0 8zm12 0a4 4 0 1 1 0-8 4 4 0 0 1 0 8zm54 0a4 4 0 1 1 0-8 4 4 0 0 1 0 8zM50 54a4 4 0 1 1 0-8 4 4 0 0 1 0 8zm24 0a4 4 0 1 1 0-8 4 4 0 0 1 0 8zM50 78a4 4 0 1 1 0-8 4 4 0 0 1 0 8zm54-12a4 4 0 1 1 0-8 4 4 0 0 1 0 8zm12 12a4 4 0 1 1 0-8 4 4 0 0 1 0 8zM92 54a4 4 0 1 1 0-8 4 4 0 0 1 0 8zm24 0a4 4 0 1 1 0-8 4 4 0 0 1 0 8zM92 78a4 4 0 1 1 0-8 4 4 0 0 1 0 8zm24-42a4 4 0 1 1 0-8 4 4 0 0 1 0 8z"/></g></g>
 	</pattern>
 
 </defs>
 
<rect x="-3.5" y="-8.5" width="27" height="37" stroke="none" style="fill: #732930" />
<rect x="-3.5" y="-8.5" width="27" height="37" stroke="none" stroke-width="5px" fill="url(#pattern)" /> 
<g transform="translate(-2.5,-2.5)" >
<g transform="scale(1.25,1.25)" >

	<path stroke-linejoin="round" stroke-width='0.5' fill='white' stroke='black' d='M 8.297872340425531 8.297872340425531 L 8.297872340425531 4.8936170212765955 L 11.702127659574469 4.8936170212765955 L 11.702127659574469 8.297872340425531 L 15.106382978723405 8.297872340425531 L 15.106382978723405 11.702127659574469 L 11.702127659574469 11.702127659574469 L 11.702127659574469 15.106382978723405 L 8.297872340425531 15.106382978723405 L 8.297872340425531 11.702127659574469 L 4.8936170212765955 11.702127659574469 L 4.8936170212765955 8.297872340425531 Z  '/>

</g>
</g>
</svg>
	