
<svg xmlns="http://www.w3.org/2000/svg" width='408px' height="555px" viewBox='-2.5 -7.5 25 35' version='1.1'>
	
	<defs>

  	<pattern id="pattern" x="0" y="0" width="28" height="49" patternUnits="userSpaceOnUse" patternTransform="scale(0.2 0.2)">
  		<g fill-rule="evenodd"><g id="hexagons" fill="#ec4700" fill-rule="nonzero"><path d="M13.99 9.25l13 7.5v15l-13 7.5L1 31.75v-15l12.99-7.5zM3 17.9v12.7l10.99 6.34 11-6.35V17.9l-11-6.34L3 17.9zM0 15l12.98-7.5V0h-2v6.35L0 12.69v2.3zm0 18.5L12.98 41v8h-2v-6.85L0 35.81v-2.3zM15 0v7.5L27.99 15H28v-2.31h-.01L17 6.35V0h-2zm0 49v-8l12.99-7.5H28v2.31h-.01L17 42.15V49h-2z"/></g></g>
 	</pattern>
 
 </defs>
 
<rect x="-3.5" y="-8.5" width="27" height="37" stroke="none" style="fill: #fab40b" />
<rect x="-3.5" y="-8.5" width="27" height="37" stroke="none" stroke-width="5px" fill="url(#pattern)" /> 
<g transform="translate(-2.5,-2.5)" >
<g transform="scale(1.25,1.25)" >
			
<g transform="scale(0.8,.8)" stroke-miterlimit='10' stroke-linejoin="round" stroke-width='0.5' fill='white' stroke='black' >
	<path class="cls-2" d="M8,18.08h3.34V11.37a1.11,1.11,0,0,1,1.11-1.1h0a1.13,1.13,0,0,1,1.13,1.13v6.68H17V8H8Z"/>
	<rect class="cls-2" x="8.0" y="6.92" width="9" height="1.12"/>
	<rect class="cls-2" x="11.38" y="6.92" width="2.23" height="1.12"/>
</g>

</g>
</g>
</svg>
	