
<svg xmlns="http://www.w3.org/2000/svg" width='816px' height="1110px" viewBox='-2.5 -7.5 25 35' version='1.1'>
	
	<defs>

  	<pattern id="pattern" x="5" y="5" width="40" height="40" patternUnits="userSpaceOnUse" patternTransform="scale(0.2 0.2)">
  		<g  id="Page-1" fill="none" fill-rule="evenodd"><g id="Artboard-5" fill="#ad9d33"><path id="Combined-Shape" d="M0 38.59l2.83-2.83 1.41 1.41L1.41 40H0v-1.41zM0 1.4l2.83 2.83 1.41-1.41L1.41 0H0v1.41zM38.59 40l-2.83-2.83 1.41-1.41L40 38.59V40h-1.41zM40 1.41l-2.83 2.83-1.41-1.41L38.59 0H40v1.41zM20 18.6l2.83-2.83 1.41 1.41L21.41 20l2.83 2.83-1.41 1.41L20 21.41l-2.83 2.83-1.41-1.41L18.59 20l-2.83-2.83 1.41-1.41L20 18.59z"/></g></g>
 	</pattern>
 
 </defs>
 
<rect x="-2.5" y="-7.5" width="25" height="35" stroke="none" style="fill: #115e33" />
<rect x="-2.5" y="-7.5" width="25" height="35" stroke="none" stroke-width="5px" fill="url(#pattern)" /> 
<g transform="translate(-2.5,-2.5)" >
<g transform="scale(1.25,1.25)" >
		
	<path stroke-linejoin="round" stroke-width='0.5' fill='white' stroke='black' d='M 10 14.539007092198581 L 13.930895449801707 12.26950354609929 L 13.930895449801708 7.7304964539007095 L 10 5.460992907801418 L 6.069104550198293 7.730496453900707 L 6.069104550198291 12.269503546099287 L 9.999999999999998 14.539007092198581 Z M 10 10 L 10 14.539007092198581 M 10 10 L 13.930895449801708 7.7304964539007095 M 10 10 L 6.069104550198293 7.730496453900707   '/>

</g>
</g>
</svg>
	