
<svg xmlns="http://www.w3.org/2000/svg" width='408px' height="555px" viewBox='-2.5 -7.5 25 35' version='1.1'>
	
	<defs>

  	<pattern id="pattern" x="5" y="5" width="40" height="40" patternUnits="userSpaceOnUse" patternTransform="scale(0.2 0.2)">
  		<g  id="Page-1" fill="none" fill-rule="evenodd"><g id="Artboard-5" fill="#ad9d33"><path id="Combined-Shape" d="M0 38.59l2.83-2.83 1.41 1.41L1.41 40H0v-1.41zM0 1.4l2.83 2.83 1.41-1.41L1.41 0H0v1.41zM38.59 40l-2.83-2.83 1.41-1.41L40 38.59V40h-1.41zM40 1.41l-2.83 2.83-1.41-1.41L38.59 0H40v1.41zM20 18.6l2.83-2.83 1.41 1.41L21.41 20l2.83 2.83-1.41 1.41L20 21.41l-2.83 2.83-1.41-1.41L18.59 20l-2.83-2.83 1.41-1.41L20 18.59z"/></g></g>
 	</pattern>
 
 </defs>
 
<rect x="-3.5" y="-8.5" width="27" height="37" stroke="none" style="fill: #115e33" />
<rect x="-3.5" y="-8.5" width="27" height="37" stroke="none" stroke-width="5px" fill="url(#pattern)" /> 
<g transform="translate(-2.5,-2.5)" >
<g transform="scale(1.25,1.25)" >
		
<g transform="scale(0.8,.8)" stroke-miterlimit='10' stroke-linejoin="round" stroke-width='0.5' fill='white' stroke='black' >
	<polygon class="cls-2" points="11.61 17.41 13.39 17.41 16.07 15.63 16.07 10.27 8.93 10.27 8.93 15.63 11.61 17.41"/>
	<path class="cls-2" d="M8,17.41V11.24a3.64,3.64,0,0,1,3.64-3.65h1.64A3.64,3.64,0,0,1,17,11.24v6.17L13.39,19.2V14.73l2.68-.89V12.05L12.5,13l-3.57-.9v1.79l2.68.89V19.2Z"/>
	<polygon class="cls-2" points="10.71 6.7 11.61 10.27 13.39 10.27 14.29 6.7 10.71 6.7"/>
</g>

</g>
</g>
</svg>
	