
<svg xmlns="http://www.w3.org/2000/svg" width='408px' height="555px" viewBox='-2.5 -7.5 25 35' version='1.1'>
	
	<defs>

  	<pattern id="pattern" x="0" y="0" width="52" height="52" patternUnits="userSpaceOnUse" patternTransform="scale(0.2 0.2)">
  		<path fill="#9964f9" d="M0 17.83V0h17.83a3 3 0 0 1-5.66 2H5.9A5 5 0 0 1 2 5.9v6.27a3 3 0 0 1-2 5.66zm0 18.34a3 3 0 0 1 2 5.66v6.27A5 5 0 0 1 5.9 52h6.27a3 3 0 0 1 5.66 0H0V36.17zM36.17 52a3 3 0 0 1 5.66 0h6.27a5 5 0 0 1 3.9-3.9v-6.27a3 3 0 0 1 0-5.66V52H36.17zM0 31.93v-9.78a5 5 0 0 1 3.8.72l4.43-4.43a3 3 0 1 1 1.42 1.41L5.2 24.28a5 5 0 0 1 0 5.52l4.44 4.43a3 3 0 1 1-1.42 1.42L3.8 31.2a5 5 0 0 1-3.8.72zm52-14.1a3 3 0 0 1 0-5.66V5.9A5 5 0 0 1 48.1 2h-6.27a3 3 0 0 1-5.66-2H52v17.83zm0 14.1a4.97 4.97 0 0 1-1.72-.72l-4.43 4.44a3 3 0 1 1-1.41-1.42l4.43-4.43a5 5 0 0 1 0-5.52l-4.43-4.43a3 3 0 1 1 1.41-1.41l4.43 4.43c.53-.35 1.12-.6 1.72-.72v9.78zM22.15 0h9.78a5 5 0 0 1-.72 3.8l4.44 4.43a3 3 0 1 1-1.42 1.42L29.8 5.2a5 5 0 0 1-5.52 0l-4.43 4.44a3 3 0 1 1-1.41-1.42l4.43-4.43a5 5 0 0 1-.72-3.8zm0 52c.13-.6.37-1.19.72-1.72l-4.43-4.43a3 3 0 1 1 1.41-1.41l4.43 4.43a5 5 0 0 1 5.52 0l4.43-4.43a3 3 0 1 1 1.42 1.41l-4.44 4.43c.36.53.6 1.12.72 1.72h-9.78zm9.75-24a5 5 0 0 1-3.9 3.9v6.27a3 3 0 1 1-2 0V31.9a5 5 0 0 1-3.9-3.9h-6.27a3 3 0 1 1 0-2h6.27a5 5 0 0 1 3.9-3.9v-6.27a3 3 0 1 1 2 0v6.27a5 5 0 0 1 3.9 3.9h6.27a3 3 0 1 1 0 2H31.9z"></path>
 	</pattern>
 
 </defs>
 
<rect x="-3.5" y="-8.5" width="27" height="37" stroke="none" style="fill: #524f40" />
<rect x="-3.5" y="-8.5" width="27" height="37" stroke="none" stroke-width="5px" fill="url(#pattern)" /> 
<g transform="translate(-2.5,-2.5)" >
<g transform="scale(1.25,1.25)" >
		
<g transform="scale(0.8,.8)" stroke-miterlimit='10' stroke-linejoin="round" stroke-width='0.5' fill='white' stroke='black' >
	<polygon class="cls-2" points="11.61 17.41 13.39 17.41 16.07 15.63 16.07 10.27 8.93 10.27 8.93 15.63 11.61 17.41"/>
	<path class="cls-2" d="M8,17.41V11.24a3.64,3.64,0,0,1,3.64-3.65h1.64A3.64,3.64,0,0,1,17,11.24v6.17L13.39,19.2V14.73l2.68-.89V12.05L12.5,13l-3.57-.9v1.79l2.68.89V19.2Z"/>
	<polygon class="cls-2" points="10.71 6.7 11.61 10.27 13.39 10.27 14.29 6.7 10.71 6.7"/>
</g>

</g>
</g>
</svg>
	