<svg xmlns="http://www.w3.org/2000/svg" xmlns:xlink="http://www.w3.org/1999/xlink" version="1.1" x="0px" y="0px" viewBox="0 0 100 125" style="enable-background:new 0 0 100 100;" xml:space="preserve"><style type="text/css">
	.st0{fill:none;stroke:#000000;stroke-width:2;stroke-linecap:round;stroke-linejoin:round;stroke-miterlimit:10;}
	.st1{fill:none;stroke:#000000;stroke-width:2;stroke-miterlimit:10;}
</style><path d="M81.444,42.375l-18.591,1.049c3.57-6.308,5.378-11.197,5.378-14.549C68.23,18.468,60.108,10,50.125,10  S32.02,18.468,32.02,28.875c0,3.352,1.808,8.241,5.378,14.549l-18.591-1.049c-0.274-0.013-0.544,0.083-0.743,0.271  c-0.2,0.188-0.313,0.451-0.313,0.727v12.368c0,0.275,0.113,0.538,0.313,0.727c0.199,0.188,0.47,0.287,0.743,0.271l24.058-1.356  l-1.488,33.574c-0.012,0.272,0.088,0.538,0.276,0.735s0.45,0.309,0.723,0.309h15.5c0.273,0,0.534-0.111,0.723-0.309  s0.289-0.463,0.276-0.735l-1.488-33.574l24.058,1.356c0.274,0.015,0.543-0.083,0.743-0.271s0.313-0.451,0.313-0.727V43.373  c0-0.275-0.113-0.538-0.313-0.727S81.719,42.363,81.444,42.375z M80.5,54.684l-24.106-1.359c-0.279-0.019-0.558,0.089-0.759,0.287  c-0.201,0.198-0.309,0.473-0.296,0.755l1.491,33.635H43.42l1.491-33.635c0.013-0.282-0.095-0.557-0.296-0.755  c-0.201-0.198-0.477-0.306-0.759-0.287L19.75,54.684V44.431l19.384,1.094c0.358,0.017,0.718-0.163,0.91-0.478  c0.192-0.315,0.195-0.711,0.007-1.029c-3.946-6.684-6.032-11.92-6.032-15.143C34.02,19.57,41.245,12,50.125,12  S66.23,19.57,66.23,28.875c0,3.223-2.086,8.459-6.032,15.143c-0.188,0.318-0.185,0.714,0.007,1.029  c0.192,0.314,0.545,0.503,0.91,0.478L80.5,44.431V54.684z"/><path d="M50.125,20.246c-4.768,0-8.646,4.033-8.646,8.99c0,4.626,7.056,13.731,7.86,14.755c0.189,0.241,0.479,0.382,0.786,0.382  s0.597-0.141,0.786-0.382c0.805-1.023,7.86-10.129,7.86-14.755C58.771,24.279,54.893,20.246,50.125,20.246z M50.125,41.727  c-2.392-3.204-6.646-9.52-6.646-12.49c0-3.854,2.981-6.99,6.646-6.99s6.646,3.136,6.646,6.99  C56.771,32.205,52.517,38.521,50.125,41.727z"/><text x="0" y="115" fill="#000000" font-size="5px" font-weight="bold" font-family="'Helvetica Neue', Helvetica, Arial-Unicode, Arial, Sans-serif">Created by Made</text><text x="0" y="120" fill="#000000" font-size="5px" font-weight="bold" font-family="'Helvetica Neue', Helvetica, Arial-Unicode, Arial, Sans-serif">from the Noun Project</text></svg>