<svg xmlns:dc="http://purl.org/dc/elements/1.1/" xmlns:cc="http://creativecommons.org/ns#" xmlns:rdf="http://www.w3.org/1999/02/22-rdf-syntax-ns#" xmlns:svg="http://www.w3.org/2000/svg" xmlns="http://www.w3.org/2000/svg" xmlns:sodipodi="http://sodipodi.sourceforge.net/DTD/sodipodi-0.dtd" xmlns:inkscape="http://www.inkscape.org/namespaces/inkscape" version="1.0" x="0px" y="0px" viewBox="0 0 32 40" enable-background="new 0 0 32 32" xml:space="preserve"><path style="color:#000000;font-style:normal;font-variant:normal;font-weight:normal;font-stretch:normal;font-size:medium;line-height:normal;font-family:sans-serif;text-indent:0;text-align:start;text-decoration:none;text-decoration-line:none;text-decoration-style:solid;text-decoration-color:#000000;letter-spacing:normal;word-spacing:normal;text-transform:none;direction:ltr;block-progression:tb;writing-mode:lr-tb;baseline-shift:baseline;text-anchor:start;white-space:normal;clip-rule:nonzero;display:inline;overflow:visible;visibility:visible;opacity:1;isolation:auto;mix-blend-mode:normal;color-interpolation:sRGB;color-interpolation-filters:linearRGB;solid-color:#000000;solid-opacity:1;fill:#000000;fill-opacity:1;fill-rule:nonzero;stroke:none;stroke-width:0.79309303;stroke-linecap:round;stroke-linejoin:round;stroke-miterlimit:10;stroke-dasharray:none;stroke-dashoffset:0;stroke-opacity:1;color-rendering:auto;image-rendering:auto;shape-rendering:auto;text-rendering:auto;enable-background:accumulate" d="M 15.998047 0.00390625 A 0.50399789 0.49613307 0 0 0 15.677734 0.1171875 L 12.931641 2.3710938 A 0.50399789 0.49613307 0 0 0 12.75 2.7519531 L 12.75 21.917969 L 10.814453 21.917969 A 0.50005 0.50005 0 0 0 10.314453 22.417969 L 10.314453 24.669922 A 0.50005 0.50005 0 0 0 10.814453 25.169922 L 14.585938 25.169922 L 14.585938 28.707031 C 14.280816 29.068637 13.974609 29.451447 13.974609 29.923828 C 13.974609 31.078518 14.892774 32 16 32 C 17.107226 32 18.025391 31.078518 18.025391 29.923828 C 18.025391 29.450011 17.718248 29.067791 17.414062 28.707031 L 17.414062 25.169922 L 21.185547 25.169922 A 0.50005 0.50005 0 0 0 21.685547 24.669922 L 21.685547 22.417969 A 0.50005 0.50005 0 0 0 21.185547 21.917969 L 19.25 21.917969 L 19.25 2.7519531 A 0.50399789 0.49613307 0 0 0 19.068359 2.3710938 L 16.322266 0.1171875 A 0.50399789 0.49613307 0 0 0 15.998047 0.00390625 z M 16 1.1464844 L 18.242188 2.984375 L 18.242188 21.917969 L 16.5 21.917969 L 16.5 3.2773438 A 0.50005 0.50005 0 0 0 15.992188 2.7695312 A 0.50005 0.50005 0 0 0 15.5 3.2773438 L 15.5 21.917969 L 13.757812 21.917969 L 13.757812 2.984375 L 16 1.1464844 z M 11.314453 22.917969 L 20.685547 22.917969 L 20.685547 24.169922 L 16.914062 24.169922 L 15.085938 24.169922 L 11.314453 24.169922 L 11.314453 22.917969 z M 15.585938 25.169922 L 16.414062 25.169922 L 16.414062 28.722656 A 0.50005 0.50005 0 0 0 16.605469 29.115234 C 16.871628 29.32554 17.025391 29.643714 17.025391 29.923828 C 17.025391 30.570592 16.570284 31 16 31 C 15.429716 31 14.974609 30.570592 14.974609 29.923828 C 14.974609 29.641834 15.127302 29.324983 15.394531 29.115234 A 0.50005 0.50005 0 0 0 15.585938 28.722656 L 15.585938 25.169922 z "/><text x="0" y="47" fill="#000000" font-size="5px" font-weight="bold" font-family="'Helvetica Neue', Helvetica, Arial-Unicode, Arial, Sans-serif">Created by Chameleon Design</text><text x="0" y="52" fill="#000000" font-size="5px" font-weight="bold" font-family="'Helvetica Neue', Helvetica, Arial-Unicode, Arial, Sans-serif">from the Noun Project</text></svg>