<svg xmlns="http://www.w3.org/2000/svg" xmlns:xlink="http://www.w3.org/1999/xlink" xmlns:sketch="http://www.bohemiancoding.com/sketch/ns" viewBox="0 0 100 100" version="1.1" x="0px" y="0px"><title>Shield-14</title><desc>Created with Sketch.</desc><g stroke="none" stroke-width="1" fill="none" fill-rule="evenodd" sketch:type="MSPage"><path d="M82.3468591,17.4465 C77.9893591,17.3895 71.6473591,16.728 64.6363591,13.8975 C59.6908591,11.901 55.8118591,9.3885 52.9453591,7.161 L52.9453591,7.0755 L52.8373591,7.0755 C52.5913591,6.8835 52.3393591,6.6885 52.1083591,6.501 C51.6973591,6.1665 51.1963591,6 50.6953591,6 C50.1943591,6 49.6918591,6.1665 49.2823591,6.501 C49.0513591,6.6885 48.7993591,6.8835 48.5518591,7.0755 L48.4453591,7.0755 L48.4453591,7.1595 C45.5803591,9.387 41.6998591,11.901 36.7543591,13.8975 C29.7433591,16.728 23.3998591,17.3895 19.0438591,17.4465 C17.9848591,17.46 17.0983591,18.2445 16.9438591,19.2915 C15.5863591,28.482 13.0018591,56.8845 31.7713591,79.404 C37.1728591,85.8855 43.1428591,90.4335 48.4453591,93.63 L48.4453591,93.8715 L48.8353591,93.8715 C49.4083591,94.212 50.0518591,94.383 50.6938591,94.383 C51.3373591,94.383 51.9793591,94.212 52.5523591,93.8715 L52.9453591,93.8715 L52.9453591,93.6285 C58.2493591,90.432 64.2148591,85.8855 69.6163591,79.404 C88.3873591,56.8845 85.8043591,28.482 84.4468591,19.2915 C84.2908591,18.2445 83.4043591,17.46 82.3468591,17.4465 L82.3468591,17.4465 Z M35.2273591,76.5225 C19.2013591,57.2955 19.7548591,33.153 21.1348591,21.882 C27.0988591,21.5805 32.9113591,20.301 38.4388591,18.0705 C41.9608591,16.6485 45.3043591,14.838 48.4453591,12.702 L48.4453591,88.2525 C43.4353591,84.9285 38.9743591,81.018 35.2273591,76.5225 L35.2273591,76.5225 Z M66.1603591,76.5225 C62.4133591,81.0195 57.9538591,84.9285 52.9453591,88.251 L52.9453591,12.7035 C56.0863591,14.8395 59.4298591,16.6485 62.9518591,18.0705 C68.4793591,20.301 74.2903591,21.5805 80.2558591,21.882 C81.6343591,33.153 82.1878591,57.2955 66.1603591,76.5225 L66.1603591,76.5225 Z" fill="#000000" sketch:type="MSShapeGroup"/></g></svg>